<svg width="246" height="248" viewBox="0 0 246 248" fill="none" xmlns="http://www.w3.org/2000/svg">
    <defs>
        <radialGradient id="paint0_radial_12_57524" cx="0" cy="0" r="1" gradientUnits="userSpaceOnUse" gradientTransform="translate(23.6282 23.2816) scale(22.6841 22.6841)">
            <stop stop-color="#220000"/>
            <stop offset="0.73" stop-color="#984023"/>
            <stop offset="1" stop-color="#220000"/>
        </radialGradient>
        <radialGradient id="paint1_radial_12_57524" cx="0" cy="0" r="1" gradientUnits="userSpaceOnUse" gradientTransform="translate(23.6283 23.2817) scale(11.3421 11.3421)">
            <stop offset="0.15" stop-color="white"/>
            <stop offset="0.21" stop-color="#E5D3D3"/>
            <stop offset="0.29" stop-color="#C49C9E"/>
            <stop offset="0.36" stop-color="#AD7477"/>
            <stop offset="0.42" stop-color="#9E5C5F"/>
            <stop offset="0.45" stop-color="#995356"/>
            <stop offset="0.57" stop-color="#6B3335"/>
            <stop offset="0.69" stop-color="#431718"/>
            <stop offset="0.79" stop-color="#2B0606"/>
            <stop offset="0.85" stop-color="#220000"/>
            <stop offset="0.86" stop-color="#330704"/>
            <stop offset="0.87" stop-color="#471009"/>
            <stop offset="0.88" stop-color="#641D0F"/>
            <stop offset="0.89" stop-color="#8A2E18"/>
            <stop offset="0.9" stop-color="#C84927"/>
            <stop offset="0.91" stop-color="#9C361C"/>
            <stop offset="0.93" stop-color="#772514"/>
            <stop offset="0.94" stop-color="#58180C"/>
            <stop offset="0.95" stop-color="#400D07"/>
            <stop offset="0.97" stop-color="#2F0603"/>
            <stop offset="0.98" stop-color="#250101"/>
            <stop offset="1" stop-color="#220000"/>
        </radialGradient>
        <radialGradient id="paint2_radial_12_57524" cx="0" cy="0" r="1" gradientUnits="userSpaceOnUse" gradientTransform="translate(23.6285 23.2818) scale(9.44151)">
            <stop offset="0.15" stop-color="white"/>
            <stop offset="0.28" stop-color="#C2C2C2"/>
            <stop offset="0.43" stop-color="#888888"/>
            <stop offset="0.56" stop-color="#575757"/>
            <stop offset="0.69" stop-color="#313131"/>
            <stop offset="0.81" stop-color="#161616"/>
            <stop offset="0.92" stop-color="#060606"/>
            <stop offset="1"/>
        </radialGradient>
        <radialGradient id="paint3_radial_12_57524" cx="0" cy="0" r="1" gradientUnits="userSpaceOnUse" gradientTransform="translate(87.5117 230.75) scale(16.0628 16.0628)">
            <stop stop-color="#220000"/>
            <stop offset="0.73" stop-color="#984023"/>
            <stop offset="1" stop-color="#220000"/>
        </radialGradient>
        <radialGradient id="paint4_radial_12_57524" cx="0" cy="0" r="1" gradientUnits="userSpaceOnUse" gradientTransform="translate(87.4506 230.75) scale(8.03141)">
            <stop offset="0.15" stop-color="white"/>
            <stop offset="0.21" stop-color="#E5D3D3"/>
            <stop offset="0.29" stop-color="#C49C9E"/>
            <stop offset="0.36" stop-color="#AD7477"/>
            <stop offset="0.42" stop-color="#9E5C5F"/>
            <stop offset="0.45" stop-color="#995356"/>
            <stop offset="0.57" stop-color="#6B3335"/>
            <stop offset="0.69" stop-color="#431718"/>
            <stop offset="0.79" stop-color="#2B0606"/>
            <stop offset="0.85" stop-color="#220000"/>
            <stop offset="0.86" stop-color="#330704"/>
            <stop offset="0.87" stop-color="#471009"/>
            <stop offset="0.88" stop-color="#641D0F"/>
            <stop offset="0.89" stop-color="#8A2E18"/>
            <stop offset="0.9" stop-color="#C84927"/>
            <stop offset="0.91" stop-color="#9C361C"/>
            <stop offset="0.93" stop-color="#772514"/>
            <stop offset="0.94" stop-color="#58180C"/>
            <stop offset="0.95" stop-color="#400D07"/>
            <stop offset="0.97" stop-color="#2F0603"/>
            <stop offset="0.98" stop-color="#250101"/>
            <stop offset="1" stop-color="#220000"/>
        </radialGradient>
        <radialGradient id="paint5_radial_12_57524" cx="0" cy="0" r="1" gradientUnits="userSpaceOnUse" gradientTransform="translate(87.4506 230.75) scale(6.68263)">
            <stop offset="0.15" stop-color="white"/>
            <stop offset="0.28" stop-color="#C2C2C2"/>
            <stop offset="0.43" stop-color="#888888"/>
            <stop offset="0.56" stop-color="#575757"/>
            <stop offset="0.69" stop-color="#313131"/>
            <stop offset="0.81" stop-color="#161616"/>
            <stop offset="0.92" stop-color="#060606"/>
            <stop offset="1"/>
        </radialGradient>
        <radialGradient id="paint6_radial_12_57524" cx="0" cy="0" r="1" gradientUnits="userSpaceOnUse" gradientTransform="translate(220.367 43.6361) scale(16.0628 16.0628)">
            <stop stop-color="#220000"/>
            <stop offset="0.73" stop-color="#984023"/>
            <stop offset="1" stop-color="#220000"/>
        </radialGradient>
        <radialGradient id="paint7_radial_12_57524" cx="0" cy="0" r="1" gradientUnits="userSpaceOnUse" gradientTransform="translate(220.367 43.6359) scale(8.03141 8.0314)">
            <stop offset="0.15" stop-color="white"/>
            <stop offset="0.21" stop-color="#E5D3D3"/>
            <stop offset="0.29" stop-color="#C49C9E"/>
            <stop offset="0.36" stop-color="#AD7477"/>
            <stop offset="0.42" stop-color="#9E5C5F"/>
            <stop offset="0.45" stop-color="#995356"/>
            <stop offset="0.57" stop-color="#6B3335"/>
            <stop offset="0.69" stop-color="#431718"/>
            <stop offset="0.79" stop-color="#2B0606"/>
            <stop offset="0.85" stop-color="#220000"/>
            <stop offset="0.86" stop-color="#330704"/>
            <stop offset="0.87" stop-color="#471009"/>
            <stop offset="0.88" stop-color="#641D0F"/>
            <stop offset="0.89" stop-color="#8A2E18"/>
            <stop offset="0.9" stop-color="#C84927"/>
            <stop offset="0.91" stop-color="#9C361C"/>
            <stop offset="0.93" stop-color="#772514"/>
            <stop offset="0.94" stop-color="#58180C"/>
            <stop offset="0.95" stop-color="#400D07"/>
            <stop offset="0.97" stop-color="#2F0603"/>
            <stop offset="0.98" stop-color="#250101"/>
            <stop offset="1" stop-color="#220000"/>
        </radialGradient>
        <radialGradient id="paint8_radial_12_57524" cx="0" cy="0" r="1" gradientUnits="userSpaceOnUse" gradientTransform="translate(220.368 43.6361) scale(6.68262 6.68263)">
            <stop offset="0.15" stop-color="white"/>
            <stop offset="0.28" stop-color="#C2C2C2"/>
            <stop offset="0.43" stop-color="#888888"/>
            <stop offset="0.56" stop-color="#575757"/>
            <stop offset="0.69" stop-color="#313131"/>
            <stop offset="0.81" stop-color="#161616"/>
            <stop offset="0.92" stop-color="#060606"/>
            <stop offset="1"/>
        </radialGradient>
        <radialGradient id="paint9_radial_12_57524" cx="0" cy="0" r="1" gradientUnits="userSpaceOnUse" gradientTransform="translate(159.059 80.7279) scale(16.0628 16.0628)">
            <stop stop-color="#220000"/>
            <stop offset="0.73" stop-color="#984023"/>
            <stop offset="1" stop-color="#220000"/>
        </radialGradient>
        <radialGradient id="paint10_radial_12_57524" cx="0" cy="0" r="1" gradientUnits="userSpaceOnUse" gradientTransform="translate(159.059 80.7277) scale(8.03141)">
            <stop offset="0.15" stop-color="white"/>
            <stop offset="0.21" stop-color="#E5D3D3"/>
            <stop offset="0.29" stop-color="#C49C9E"/>
            <stop offset="0.36" stop-color="#AD7477"/>
            <stop offset="0.42" stop-color="#9E5C5F"/>
            <stop offset="0.45" stop-color="#995356"/>
            <stop offset="0.57" stop-color="#6B3335"/>
            <stop offset="0.69" stop-color="#431718"/>
            <stop offset="0.79" stop-color="#2B0606"/>
            <stop offset="0.85" stop-color="#220000"/>
            <stop offset="0.86" stop-color="#330704"/>
            <stop offset="0.87" stop-color="#471009"/>
            <stop offset="0.88" stop-color="#641D0F"/>
            <stop offset="0.89" stop-color="#8A2E18"/>
            <stop offset="0.9" stop-color="#C84927"/>
            <stop offset="0.91" stop-color="#9C361C"/>
            <stop offset="0.93" stop-color="#772514"/>
            <stop offset="0.94" stop-color="#58180C"/>
            <stop offset="0.95" stop-color="#400D07"/>
            <stop offset="0.97" stop-color="#2F0603"/>
            <stop offset="0.98" stop-color="#250101"/>
            <stop offset="1" stop-color="#220000"/>
        </radialGradient>
        <radialGradient id="paint11_radial_12_57524" cx="0" cy="0" r="1" gradientUnits="userSpaceOnUse" gradientTransform="translate(158.998 80.728) scale(6.68263)">
            <stop offset="0.15" stop-color="white"/>
            <stop offset="0.28" stop-color="#C2C2C2"/>
            <stop offset="0.43" stop-color="#888888"/>
            <stop offset="0.56" stop-color="#575757"/>
            <stop offset="0.69" stop-color="#313131"/>
            <stop offset="0.81" stop-color="#161616"/>
            <stop offset="0.92" stop-color="#060606"/>
            <stop offset="1"/>
        </radialGradient>
        <radialGradient id="paint12_radial_12_57524" cx="0" cy="0" r="1" gradientUnits="userSpaceOnUse" gradientTransform="translate(70.9589 78.1526) scale(11.4034 11.4034)">
            <stop stop-color="#220000"/>
            <stop offset="0.73" stop-color="#984023"/>
            <stop offset="1" stop-color="#220000"/>
        </radialGradient>
        <radialGradient id="paint13_radial_12_57524" cx="0" cy="0" r="1" gradientUnits="userSpaceOnUse" gradientTransform="translate(70.9584 78.1529) scale(5.70169)">
            <stop offset="0.15" stop-color="white"/>
            <stop offset="0.21" stop-color="#E5D3D3"/>
            <stop offset="0.29" stop-color="#C49C9E"/>
            <stop offset="0.36" stop-color="#AD7477"/>
            <stop offset="0.42" stop-color="#9E5C5F"/>
            <stop offset="0.45" stop-color="#995356"/>
            <stop offset="0.57" stop-color="#6B3335"/>
            <stop offset="0.69" stop-color="#431718"/>
            <stop offset="0.79" stop-color="#2B0606"/>
            <stop offset="0.85" stop-color="#220000"/>
            <stop offset="0.86" stop-color="#330704"/>
            <stop offset="0.87" stop-color="#471009"/>
            <stop offset="0.88" stop-color="#641D0F"/>
            <stop offset="0.89" stop-color="#8A2E18"/>
            <stop offset="0.9" stop-color="#C84927"/>
            <stop offset="0.91" stop-color="#9C361C"/>
            <stop offset="0.93" stop-color="#772514"/>
            <stop offset="0.94" stop-color="#58180C"/>
            <stop offset="0.95" stop-color="#400D07"/>
            <stop offset="0.97" stop-color="#2F0603"/>
            <stop offset="0.98" stop-color="#250101"/>
            <stop offset="1" stop-color="#220000"/>
        </radialGradient>
        <radialGradient id="paint14_radial_12_57524" cx="0" cy="0" r="1" gradientUnits="userSpaceOnUse" gradientTransform="translate(70.9589 78.1528) scale(4.72075)">
            <stop offset="0.15" stop-color="white"/>
            <stop offset="0.28" stop-color="#C2C2C2"/>
            <stop offset="0.43" stop-color="#888888"/>
            <stop offset="0.56" stop-color="#575757"/>
            <stop offset="0.69" stop-color="#313131"/>
            <stop offset="0.81" stop-color="#161616"/>
            <stop offset="0.92" stop-color="#060606"/>
            <stop offset="1"/>
        </radialGradient>
        <radialGradient id="paint15_radial_12_57524" cx="0" cy="0" r="1" gradientUnits="userSpaceOnUse" gradientTransform="translate(29.4528 155.402) scale(11.4034 11.4034)">
            <stop stop-color="#220000"/>
            <stop offset="0.73" stop-color="#984023"/>
            <stop offset="1" stop-color="#220000"/>
        </radialGradient>
        <radialGradient id="paint16_radial_12_57524" cx="0" cy="0" r="1" gradientUnits="userSpaceOnUse" gradientTransform="translate(29.4529 155.402) scale(5.70169 5.70168)">
            <stop offset="0.15" stop-color="white"/>
            <stop offset="0.21" stop-color="#E5D3D3"/>
            <stop offset="0.29" stop-color="#C49C9E"/>
            <stop offset="0.36" stop-color="#AD7477"/>
            <stop offset="0.42" stop-color="#9E5C5F"/>
            <stop offset="0.45" stop-color="#995356"/>
            <stop offset="0.57" stop-color="#6B3335"/>
            <stop offset="0.69" stop-color="#431718"/>
            <stop offset="0.79" stop-color="#2B0606"/>
            <stop offset="0.85" stop-color="#220000"/>
            <stop offset="0.86" stop-color="#330704"/>
            <stop offset="0.87" stop-color="#471009"/>
            <stop offset="0.88" stop-color="#641D0F"/>
            <stop offset="0.89" stop-color="#8A2E18"/>
            <stop offset="0.9" stop-color="#C84927"/>
            <stop offset="0.91" stop-color="#9C361C"/>
            <stop offset="0.93" stop-color="#772514"/>
            <stop offset="0.94" stop-color="#58180C"/>
            <stop offset="0.95" stop-color="#400D07"/>
            <stop offset="0.97" stop-color="#2F0603"/>
            <stop offset="0.98" stop-color="#250101"/>
            <stop offset="1" stop-color="#220000"/>
        </radialGradient>
        <radialGradient id="paint17_radial_12_57524" cx="0" cy="0" r="1" gradientUnits="userSpaceOnUse" gradientTransform="translate(29.4525 155.401) scale(4.72075 4.72076)">
            <stop offset="0.15" stop-color="white"/>
            <stop offset="0.28" stop-color="#C2C2C2"/>
            <stop offset="0.43" stop-color="#888888"/>
            <stop offset="0.56" stop-color="#575757"/>
            <stop offset="0.69" stop-color="#313131"/>
            <stop offset="0.81" stop-color="#161616"/>
            <stop offset="0.92" stop-color="#060606"/>
            <stop offset="1"/>
        </radialGradient>
        <radialGradient id="paint18_radial_12_57524" cx="0" cy="0" r="1" gradientUnits="userSpaceOnUse" gradientTransform="translate(234.468 152.581) scale(11.4034 11.4034)">
            <stop stop-color="#220000"/>
            <stop offset="0.73" stop-color="#984023"/>
            <stop offset="1" stop-color="#220000"/>
        </radialGradient>
        <radialGradient id="paint19_radial_12_57524" cx="0" cy="0" r="1" gradientUnits="userSpaceOnUse" gradientTransform="translate(234.468 152.582) scale(5.70168 5.70169)">
            <stop offset="0.15" stop-color="white"/>
            <stop offset="0.21" stop-color="#E5D3D3"/>
            <stop offset="0.29" stop-color="#C49C9E"/>
            <stop offset="0.36" stop-color="#AD7477"/>
            <stop offset="0.42" stop-color="#9E5C5F"/>
            <stop offset="0.45" stop-color="#995356"/>
            <stop offset="0.57" stop-color="#6B3335"/>
            <stop offset="0.69" stop-color="#431718"/>
            <stop offset="0.79" stop-color="#2B0606"/>
            <stop offset="0.85" stop-color="#220000"/>
            <stop offset="0.86" stop-color="#330704"/>
            <stop offset="0.87" stop-color="#471009"/>
            <stop offset="0.88" stop-color="#641D0F"/>
            <stop offset="0.89" stop-color="#8A2E18"/>
            <stop offset="0.9" stop-color="#C84927"/>
            <stop offset="0.91" stop-color="#9C361C"/>
            <stop offset="0.93" stop-color="#772514"/>
            <stop offset="0.94" stop-color="#58180C"/>
            <stop offset="0.95" stop-color="#400D07"/>
            <stop offset="0.97" stop-color="#2F0603"/>
            <stop offset="0.98" stop-color="#250101"/>
            <stop offset="1" stop-color="#220000"/>
        </radialGradient>
        <radialGradient id="paint20_radial_12_57524" cx="0" cy="0" r="1" gradientUnits="userSpaceOnUse" gradientTransform="translate(234.468 152.581) scale(4.72075 4.72076)">
            <stop offset="0.15" stop-color="white"/>
            <stop offset="0.28" stop-color="#C2C2C2"/>
            <stop offset="0.43" stop-color="#888888"/>
            <stop offset="0.56" stop-color="#575757"/>
            <stop offset="0.69" stop-color="#313131"/>
            <stop offset="0.81" stop-color="#161616"/>
            <stop offset="0.92" stop-color="#060606"/>
            <stop offset="1"/>
        </radialGradient>
        <radialGradient id="paint21_radial_12_57524" cx="0" cy="0" r="1" gradientUnits="userSpaceOnUse" gradientTransform="translate(116.082 122.111) scale(33.9649)">
            <stop stop-color="#220000"/>
            <stop offset="0.73" stop-color="#984023"/>
            <stop offset="1" stop-color="#220000"/>
        </radialGradient>
        <radialGradient id="paint22_radial_12_57524" cx="0" cy="0" r="1" gradientUnits="userSpaceOnUse" gradientTransform="translate(116.082 122.111) scale(16.9825)">
            <stop offset="0.15" stop-color="white"/>
            <stop offset="0.21" stop-color="#E5D3D3"/>
            <stop offset="0.29" stop-color="#C49C9E"/>
            <stop offset="0.36" stop-color="#AD7477"/>
            <stop offset="0.42" stop-color="#9E5C5F"/>
            <stop offset="0.45" stop-color="#995356"/>
            <stop offset="0.57" stop-color="#6B3335"/>
            <stop offset="0.69" stop-color="#431718"/>
            <stop offset="0.79" stop-color="#2B0606"/>
            <stop offset="0.85" stop-color="#220000"/>
            <stop offset="0.86" stop-color="#330704"/>
            <stop offset="0.87" stop-color="#471009"/>
            <stop offset="0.88" stop-color="#641D0F"/>
            <stop offset="0.89" stop-color="#8A2E18"/>
            <stop offset="0.9" stop-color="#C84927"/>
            <stop offset="0.91" stop-color="#9C361C"/>
            <stop offset="0.93" stop-color="#772514"/>
            <stop offset="0.94" stop-color="#58180C"/>
            <stop offset="0.95" stop-color="#400D07"/>
            <stop offset="0.97" stop-color="#2F0603"/>
            <stop offset="0.98" stop-color="#250101"/>
            <stop offset="1" stop-color="#220000"/>
        </radialGradient>
        <radialGradient id="paint23_radial_12_57524" cx="0" cy="0" r="1" gradientUnits="userSpaceOnUse" gradientTransform="translate(116.082 122.111) scale(14.1623)">
            <stop offset="0.15" stop-color="white"/>
            <stop offset="0.28" stop-color="#C2C2C2"/>
            <stop offset="0.43" stop-color="#888888"/>
            <stop offset="0.56" stop-color="#575757"/>
            <stop offset="0.69" stop-color="#313131"/>
            <stop offset="0.81" stop-color="#161616"/>
            <stop offset="0.92" stop-color="#060606"/>
            <stop offset="1"/>
        </radialGradient>
        <linearGradient id="paint24_linear_12_57524" x1="23.5354" y1="10.354" x2="23.5354" y2="35.6571" gradientUnits="userSpaceOnUse">
            <stop stop-color="#58A5FF"/>
            <stop offset="0.48761" stop-color="white"/>
            <stop offset="1" stop-color="white"/>
        </linearGradient>
        <linearGradient id="paint25_linear_12_57524" x1="115.711" y1="102.53" x2="115.711" y2="140.484" gradientUnits="userSpaceOnUse">
            <stop stop-color="#58A5FF"/>
            <stop offset="0.48761" stop-color="white"/>
            <stop offset="1" stop-color="white"/>
        </linearGradient>
        <linearGradient id="paint26_linear_12_57524" x1="159.088" y1="74.5156" x2="159.088" y2="87.1672" gradientUnits="userSpaceOnUse">
            <stop stop-color="#58A5FF"/>
            <stop offset="0.48761" stop-color="white"/>
            <stop offset="1" stop-color="white"/>
        </linearGradient>
        <linearGradient id="paint27_linear_12_57524" x1="71.4306" y1="71.8047" x2="71.4306" y2="84.4562" gradientUnits="userSpaceOnUse">
            <stop stop-color="#58A5FF"/>
            <stop offset="0.48761" stop-color="white"/>
            <stop offset="1" stop-color="white"/>
        </linearGradient>
        <linearGradient id="paint28_linear_12_57524" x1="29.8612" y1="149.521" x2="29.8612" y2="162.173" gradientUnits="userSpaceOnUse">
            <stop stop-color="#58A5FF"/>
            <stop offset="0.48761" stop-color="white"/>
            <stop offset="1" stop-color="white"/>
        </linearGradient>
        <linearGradient id="paint29_linear_12_57524" x1="88.1487" y1="220.912" x2="88.1487" y2="239.889" gradientUnits="userSpaceOnUse">
            <stop stop-color="#58A5FF"/>
            <stop offset="0.48761" stop-color="white"/>
            <stop offset="1" stop-color="white"/>
        </linearGradient>
    </defs>
<path style="mix-blend-mode:screen" opacity="0.15" d="M0.94409 23.2816C0.980403 27.7601 2.34161 32.1276 4.85615 35.8338C7.37069 39.5399 10.926 42.4187 15.0741 44.1075C19.2221 45.7962 23.7772 46.2193 28.1654 45.3233C32.5535 44.4274 36.5782 42.2526 39.7322 39.0729C42.8863 35.8933 45.0286 31.8512 45.889 27.456C46.7495 23.0608 46.2897 18.5092 44.5675 14.3749C42.8453 10.2406 39.9378 6.70867 36.2115 4.22414C32.4852 1.73961 28.1069 0.413721 23.6282 0.413574C20.6338 0.413476 17.6689 1.00626 14.9047 2.15773C12.1405 3.3092 9.63159 4.99657 7.52275 7.12251C5.41391 9.24845 3.74686 11.7709 2.61775 14.5443C1.48864 17.3177 0.91981 20.2873 0.94409 23.2816Z" fill="url(#paint0_radial_12_57524)"/>
<path style="mix-blend-mode:screen" opacity="0.5" d="M12.2863 23.2817C12.2741 25.5276 12.929 27.7264 14.1679 29.5997C15.4068 31.4729 17.1739 32.9362 19.2453 33.8041C21.3167 34.6719 23.5991 34.9053 25.8033 34.4746C28.0074 34.0439 30.0341 32.9686 31.6265 31.3848C33.2188 29.8011 34.3052 27.7802 34.7478 25.5784C35.1904 23.3766 34.9694 21.093 34.1128 19.0169C33.2562 16.9409 31.8025 15.1658 29.936 13.9168C28.0695 12.6678 25.8742 12.001 23.6283 12.001C20.6308 12.0009 17.7552 13.1875 15.6299 15.3013C13.5046 17.4151 12.3025 20.2843 12.2863 23.2817Z" fill="url(#paint1_radial_12_57524)"/>
<path style="mix-blend-mode:screen" d="M14.187 23.2818C14.187 25.1492 14.7407 26.9746 15.7781 28.5273C16.8156 30.0799 18.2902 31.2901 20.0154 32.0047C21.7406 32.7193 23.639 32.9062 25.4704 32.5419C27.3019 32.1776 28.9842 31.2784 30.3046 29.958C31.625 28.6376 32.5243 26.9553 32.8886 25.1238C33.2529 23.2923 33.0659 21.3939 32.3513 19.6687C31.6367 17.9435 30.4265 16.469 28.8739 15.4315C27.3212 14.3941 25.4958 13.8403 23.6285 13.8403C21.1244 13.8403 18.7229 14.8351 16.9523 16.6057C15.1817 18.3763 14.187 20.7778 14.187 23.2818Z" fill="url(#paint2_radial_12_57524)"/>
<path style="mix-blend-mode:screen" opacity="0.15" d="M71.4488 230.75C71.3879 233.941 72.2795 237.079 74.0098 239.762C75.7401 242.445 78.2307 244.551 81.1635 245.812C84.0963 247.074 87.3384 247.432 90.4759 246.842C93.6134 246.253 96.5041 244.741 98.7788 242.501C101.054 240.262 102.609 237.395 103.247 234.267C103.886 231.139 103.577 227.891 102.361 224.939C101.146 221.987 99.078 219.465 96.4221 217.693C93.7663 215.922 90.6428 214.982 87.4504 214.993C83.2534 215.009 79.2292 216.666 76.2387 219.61C73.2481 222.555 71.5289 226.553 71.4488 230.75Z" fill="url(#paint3_radial_12_57524)"/>
<path style="mix-blend-mode:screen" opacity="0.5" d="M87.4506 238.781C91.8863 238.781 95.4821 235.185 95.4821 230.75C95.4821 226.314 91.8863 222.718 87.4506 222.718C83.015 222.718 79.4192 226.314 79.4192 230.75C79.4192 235.185 83.015 238.781 87.4506 238.781Z" fill="url(#paint4_radial_12_57524)"/>
<path style="mix-blend-mode:screen" d="M87.4506 237.432C91.1413 237.432 94.1332 234.44 94.1332 230.75C94.1332 227.059 91.1413 224.067 87.4506 224.067C83.7599 224.067 80.768 227.059 80.768 230.75C80.768 234.44 83.7599 237.432 87.4506 237.432Z" fill="url(#paint5_radial_12_57524)"/>
<path style="mix-blend-mode:screen" opacity="0.15" d="M204.305 43.6361C204.305 46.813 205.247 49.9186 207.012 52.5601C208.777 55.2016 211.285 57.2604 214.22 58.4762C217.156 59.6919 220.385 60.01 223.501 59.3902C226.617 58.7704 229.479 57.2406 231.726 54.9942C233.972 52.7478 235.502 49.8857 236.122 46.7698C236.741 43.6539 236.423 40.4242 235.208 37.4891C233.992 34.554 231.933 32.0453 229.291 30.2803C226.65 28.5153 223.544 27.5732 220.367 27.5732C216.107 27.5732 212.022 29.2656 209.009 32.2779C205.997 35.2903 204.305 39.3759 204.305 43.6361Z" fill="url(#paint6_radial_12_57524)"/>
<path style="mix-blend-mode:screen" opacity="0.5" d="M212.336 43.6359C212.336 45.2244 212.807 46.7772 213.689 48.0979C214.572 49.4187 215.826 50.4481 217.294 51.0559C218.761 51.6638 220.376 51.8229 221.934 51.513C223.492 51.2031 224.923 50.4382 226.046 49.315C227.169 48.1918 227.934 46.7607 228.244 45.2027C228.554 43.6448 228.395 42.0299 227.787 40.5624C227.179 39.0948 226.15 37.8405 224.829 36.958C223.508 36.0755 221.956 35.6045 220.367 35.6045C218.237 35.6045 216.194 36.4507 214.688 37.9568C213.182 39.463 212.336 41.5058 212.336 43.6359Z" fill="url(#paint7_radial_12_57524)"/>
<path style="mix-blend-mode:screen" d="M213.685 43.6361C213.636 44.9672 213.986 46.2825 214.69 47.4132C215.394 48.5439 216.42 49.4385 217.636 49.9821C218.852 50.5257 220.203 50.6935 221.515 50.4641C222.827 50.2346 224.04 49.6182 224.999 48.6942C225.959 47.7701 226.62 46.5805 226.898 45.2779C227.177 43.9754 227.059 42.6194 226.562 41.3839C226.064 40.1485 225.208 39.09 224.105 38.3442C223.001 37.5985 221.7 37.1996 220.368 37.1987C218.637 37.1976 216.973 37.8679 215.727 39.0685C214.481 40.2692 213.749 41.9066 213.685 43.6361Z" fill="url(#paint8_radial_12_57524)"/>
<path style="mix-blend-mode:screen" opacity="0.15" d="M142.996 80.7279C142.996 83.9048 143.938 87.0104 145.703 89.6519C147.468 92.2934 149.977 94.3522 152.912 95.568C155.847 96.7837 159.077 97.1018 162.193 96.4821C165.309 95.8623 168.171 94.3324 170.417 92.086C172.664 89.8396 174.193 86.9775 174.813 83.8616C175.433 80.7457 175.115 77.516 173.899 74.5809C172.683 71.6458 170.625 69.1371 167.983 67.3721C165.342 65.6071 162.236 64.665 159.059 64.665C154.799 64.665 150.713 66.3574 147.701 69.3697C144.689 72.3821 142.996 76.4677 142.996 80.7279Z" fill="url(#paint9_radial_12_57524)"/>
<path style="mix-blend-mode:screen" opacity="0.5" d="M151.027 80.7277C151.027 82.3161 151.498 83.869 152.381 85.1897C153.263 86.5105 154.518 87.5399 155.985 88.1478C157.453 88.7556 159.068 88.9147 160.625 88.6048C162.183 88.2949 163.614 87.53 164.738 86.4068C165.861 85.2836 166.626 83.8525 166.936 82.2945C167.246 80.7366 167.087 79.1218 166.479 77.6542C165.871 76.1867 164.841 74.9323 163.521 74.0498C162.2 73.1673 160.647 72.6963 159.059 72.6963C156.929 72.6963 154.886 73.5425 153.38 75.0486C151.873 76.5548 151.027 78.5976 151.027 80.7277Z" fill="url(#paint10_radial_12_57524)"/>
<path style="mix-blend-mode:screen" d="M158.998 87.4107C162.688 87.4107 165.68 84.4187 165.68 80.728C165.68 77.0373 162.688 74.0454 158.998 74.0454C155.307 74.0454 152.315 77.0373 152.315 80.728C152.315 84.4187 155.307 87.4107 158.998 87.4107Z" fill="url(#paint11_radial_12_57524)"/>
<path style="mix-blend-mode:screen" opacity="0.15" d="M59.6169 78.1526C59.6169 80.4106 60.2873 82.6177 61.543 84.4943C62.7988 86.3709 64.5834 87.8324 66.6706 88.6937C68.7579 89.5549 71.0539 89.7771 73.2676 89.3321C75.4813 88.8871 77.513 87.795 79.1054 86.194C80.6977 84.5931 81.7789 82.5555 82.2119 80.3394C82.645 78.1234 82.4104 75.8286 81.5379 73.746C80.6654 71.6635 79.1942 69.8867 77.3109 68.6411C75.4276 67.3955 73.2169 66.737 70.9589 66.7492C69.4643 66.7492 67.9844 67.0446 66.6043 67.6184C65.2242 68.1922 63.9711 69.0331 62.9171 70.0929C61.8631 71.1526 61.0289 72.4101 60.4626 73.7933C59.8962 75.1765 59.6088 76.658 59.6169 78.1526Z" fill="url(#paint12_radial_12_57524)"/>
<path style="mix-blend-mode:screen" opacity="0.5" d="M65.2567 78.1529C65.2567 79.2806 65.5911 80.3829 66.2176 81.3206C66.8441 82.2582 67.7346 82.989 68.7764 83.4205C69.8183 83.8521 70.9647 83.965 72.0707 83.745C73.1767 83.525 74.1927 82.982 74.9901 82.1846C75.7875 81.3872 76.3305 80.3712 76.5505 79.2652C76.7705 78.1592 76.6576 77.0128 76.226 75.9709C75.7945 74.9291 75.0637 74.0386 74.126 73.4121C73.1884 72.7856 72.0861 72.4512 70.9584 72.4512C69.4462 72.4512 67.9959 73.0519 66.9267 74.1212C65.8574 75.1904 65.2567 76.6407 65.2567 78.1529Z" fill="url(#paint13_radial_12_57524)"/>
<path style="mix-blend-mode:screen" d="M66.2381 78.1528C66.2381 79.0865 66.515 79.9992 67.0337 80.7755C67.5524 81.5518 68.2897 82.1569 69.1523 82.5142C70.0149 82.8715 70.9641 82.965 71.8798 82.7828C72.7956 82.6007 73.6367 82.1511 74.2969 81.4909C74.9571 80.8307 75.4068 79.9895 75.5889 79.0738C75.7711 78.158 75.6776 77.2089 75.3203 76.3463C74.963 75.4836 74.3579 74.7464 73.5816 74.2276C72.8052 73.7089 71.8925 73.432 70.9589 73.432C70.3366 73.4238 69.7191 73.5403 69.1426 73.7746C68.5661 74.0089 68.0424 74.3564 67.6024 74.7964C67.1624 75.2364 66.815 75.7601 66.5807 76.3365C66.3463 76.913 66.2299 77.5306 66.2381 78.1528Z" fill="url(#paint14_radial_12_57524)"/>
<path style="mix-blend-mode:screen" opacity="0.15" d="M18.0494 155.402C18.0373 157.66 18.6957 159.87 19.9414 161.754C21.187 163.637 22.9637 165.108 25.0463 165.981C27.1289 166.853 29.4236 167.088 31.6397 166.655C33.8557 166.222 35.8934 165.14 37.4943 163.548C39.0952 161.956 40.1874 159.924 40.6324 157.71C41.0774 155.497 40.8552 153.201 39.9939 151.113C39.1326 149.026 37.6711 147.241 35.7945 145.986C33.9179 144.73 31.7108 144.06 29.4528 144.06C26.439 144.06 23.5478 145.253 21.411 147.378C19.2742 149.503 18.0656 152.388 18.0494 155.402Z" fill="url(#paint15_radial_12_57524)"/>
<path style="mix-blend-mode:screen" opacity="0.5" d="M23.7512 155.402C23.739 156.532 24.063 157.64 24.6821 158.586C25.3012 159.532 26.1874 160.272 27.2281 160.713C28.2688 161.154 29.4171 161.275 30.5271 161.062C31.6372 160.849 32.6588 160.311 33.4624 159.516C34.2659 158.721 34.8151 157.706 35.0401 156.598C35.2651 155.49 35.1558 154.341 34.7261 153.295C34.2965 152.25 33.5657 151.356 32.6268 150.727C31.6879 150.097 30.5831 149.761 29.4529 149.761C27.9512 149.761 26.5102 150.353 25.4427 151.409C24.3751 152.466 23.7673 153.9 23.7512 155.402Z" fill="url(#paint16_radial_12_57524)"/>
<path style="mix-blend-mode:screen" d="M24.7318 155.401C24.7318 156.335 25.0086 157.248 25.5273 158.024C26.0461 158.8 26.7833 159.406 27.646 159.763C28.5086 160.12 29.4577 160.214 30.3735 160.031C31.2892 159.849 32.1304 159.4 32.7906 158.739C33.4508 158.079 33.9004 157.238 34.0825 156.322C34.2647 155.407 34.1712 154.457 33.8139 153.595C33.4566 152.732 32.8515 151.995 32.0752 151.476C31.2989 150.958 30.3862 150.681 29.4525 150.681C28.2005 150.681 26.9997 151.178 26.1144 152.063C25.2291 152.949 24.7318 154.149 24.7318 155.401Z" fill="url(#paint17_radial_12_57524)"/>
<path style="mix-blend-mode:screen" opacity="0.15" d="M223.065 152.581C223.017 154.841 223.641 157.064 224.859 158.969C226.076 160.873 227.833 162.373 229.904 163.277C231.976 164.181 234.27 164.449 236.494 164.047C238.719 163.645 240.773 162.591 242.397 161.019C244.022 159.446 245.142 157.427 245.616 155.217C246.09 153.007 245.896 150.705 245.06 148.605C244.223 146.505 242.781 144.701 240.917 143.423C239.053 142.144 236.851 141.448 234.591 141.423C233.102 141.399 231.622 141.668 230.236 142.215C228.851 142.763 227.587 143.578 226.517 144.614C225.446 145.651 224.591 146.887 223.998 148.254C223.406 149.621 223.089 151.092 223.065 152.581Z" fill="url(#paint18_radial_12_57524)"/>
<path style="mix-blend-mode:screen" opacity="0.5" d="M228.767 152.582C228.767 153.709 229.101 154.812 229.727 155.749C230.354 156.687 231.244 157.418 232.286 157.849C233.328 158.281 234.475 158.394 235.581 158.174C236.687 157.954 237.703 157.411 238.5 156.613C239.297 155.816 239.84 154.8 240.06 153.694C240.28 152.588 240.167 151.441 239.736 150.4C239.304 149.358 238.574 148.467 237.636 147.841C236.698 147.214 235.596 146.88 234.468 146.88C232.956 146.88 231.506 147.481 230.437 148.55C229.367 149.619 228.767 151.069 228.767 152.582Z" fill="url(#paint19_radial_12_57524)"/>
<path style="mix-blend-mode:screen" d="M229.747 152.581C229.807 153.494 230.131 154.37 230.679 155.103C231.228 155.835 231.977 156.392 232.836 156.706C233.695 157.021 234.627 157.079 235.519 156.873C236.41 156.667 237.223 156.207 237.858 155.548C238.493 154.889 238.922 154.06 239.094 153.162C239.267 152.263 239.174 151.334 238.828 150.487C238.482 149.64 237.897 148.912 237.145 148.391C236.393 147.871 235.505 147.58 234.591 147.554C233.934 147.536 233.28 147.654 232.672 147.903C232.064 148.152 231.514 148.524 231.058 148.998C230.603 149.471 230.25 150.034 230.025 150.651C229.799 151.268 229.704 151.926 229.747 152.581Z" fill="url(#paint20_radial_12_57524)"/>
<path style="mix-blend-mode:screen" opacity="0.15" d="M82.0559 122.111C82.0559 128.84 84.0515 135.419 87.7903 141.015C91.5292 146.61 96.8434 150.971 103.061 153.547C109.278 156.122 116.12 156.796 122.72 155.483C129.321 154.17 135.384 150.929 140.142 146.171C144.901 141.412 148.142 135.349 149.455 128.749C150.767 122.148 150.094 115.307 147.518 109.089C144.943 102.872 140.582 97.5578 134.986 93.8189C129.39 90.0801 122.812 88.0845 116.082 88.0845C107.058 88.0845 98.4031 91.6694 92.0219 98.0505C85.6408 104.432 82.0559 113.086 82.0559 122.111Z" fill="url(#paint21_radial_12_57524)"/>
<path style="mix-blend-mode:screen" opacity="0.5" d="M99.0991 122.111C99.1112 125.467 100.118 128.745 101.991 131.529C103.864 134.314 106.521 136.481 109.625 137.757C112.729 139.033 116.142 139.361 119.432 138.698C122.722 138.036 125.743 136.414 128.111 134.037C130.48 131.659 132.092 128.633 132.742 125.34C133.392 122.048 133.053 118.636 131.765 115.537C130.478 112.437 128.302 109.789 125.51 107.925C122.719 106.062 119.438 105.067 116.082 105.067C113.846 105.067 111.633 105.509 109.568 106.366C107.504 107.223 105.629 108.48 104.051 110.063C102.474 111.647 101.224 113.526 100.374 115.593C99.5244 117.661 99.0911 119.876 99.0991 122.111Z" fill="url(#paint22_radial_12_57524)"/>
<path style="mix-blend-mode:screen" d="M101.92 122.111C101.92 124.912 102.75 127.65 104.307 129.979C105.863 132.308 108.075 134.123 110.662 135.195C113.25 136.267 116.098 136.548 118.845 136.001C121.592 135.455 124.116 134.106 126.096 132.125C128.077 130.145 129.426 127.621 129.972 124.874C130.519 122.127 130.238 119.279 129.166 116.691C128.094 114.103 126.279 111.892 123.95 110.336C121.621 108.779 118.883 107.949 116.082 107.949C114.222 107.949 112.381 108.315 110.662 109.027C108.944 109.738 107.383 110.782 106.068 112.097C104.753 113.412 103.71 114.973 102.998 116.691C102.286 118.41 101.92 120.251 101.92 122.111Z" fill="url(#paint23_radial_12_57524)"/>
<path d="M23.5354 10.354L23.6799 20.4794L24.9776 10.4365L23.9669 20.5123L26.4009 10.6828L24.2483 20.5777L27.787 11.0898L24.5204 20.6748L29.1175 11.6521L24.7796 20.8023L30.3754 12.3624L25.0227 20.9585L31.544 13.2115L25.2463 21.1414L32.6082 14.1882L25.4477 21.3486L33.5542 15.2799L25.6241 21.5773L34.3696 16.4723L25.7733 21.8247L35.0437 17.7499L25.8933 22.0875L35.5678 19.096L25.9826 22.3623L35.935 20.4931L26.04 22.6455L36.1406 21.9229L26.0647 22.9333L36.1818 23.3668L26.0564 23.2221L36.0582 24.8061L26.0153 23.5081L35.7713 26.2218L25.9419 23.7875L35.3249 27.5956L25.8371 24.0567L34.7249 28.9096L25.7022 24.3122L33.9789 30.1466L25.5392 24.5507L33.0968 31.2906L25.35 24.769L32.0901 32.3265L25.1371 24.9644L30.9718 33.2409L24.9034 25.1342L29.7566 34.0219L24.6518 25.2763L28.4603 34.6592L24.3857 25.3887L27.0998 35.1446L24.1085 25.4701L25.6928 35.4718L23.8238 25.5194L24.2577 35.6365L23.5354 25.5359L22.8131 35.6365L23.247 25.5194L21.378 35.4718L22.9623 25.4701L19.9711 35.1446L22.6851 25.3887L18.6105 34.6592L22.419 25.2763L17.3142 34.0219L22.1674 25.1342L16.099 33.2409L21.9337 24.9644L14.9807 32.3265L21.7208 24.769L13.974 31.2906L21.5317 24.5507L13.0919 30.1466L21.3686 24.3122L12.346 28.9096L21.2338 24.0567L11.7459 27.5956L21.1289 23.7875L11.2995 26.2218L21.0555 23.5081L11.0126 24.8061L21.0144 23.2221L10.889 23.3668L21.0061 22.9333L10.9303 21.9229L21.0309 22.6455L11.1358 20.4931L21.0882 22.3623L11.5031 19.096L21.1775 22.0875L12.0272 17.7499L21.2975 21.8247L12.7013 16.4723L21.4467 21.5773L13.5166 15.2799L21.6231 21.3486L14.4626 14.1882L21.8245 21.1414L15.5268 13.2115L22.0481 20.9585L16.6955 12.3624L22.2912 20.8023L17.9533 11.6521L22.5504 20.6748L19.2839 11.0898L22.8225 20.5777L20.6699 10.6828L23.1039 20.5123L22.0932 10.4365L23.391 20.4794L23.5354 10.354Z" fill="url(#paint24_linear_12_57524)"/>
<path d="M115.711 102.53L115.928 117.718L117.874 102.653L116.358 117.767L120.009 103.023L116.78 117.865L122.088 103.633L117.189 118.011L124.084 104.477L117.577 118.202L125.971 105.542L117.942 118.437L127.724 106.816L118.277 118.711L129.32 108.281L118.579 119.022L130.739 109.919L118.844 119.365L131.962 111.707L119.068 119.736L132.973 113.624L119.248 120.13L133.76 115.643L119.382 120.542L134.31 117.738L119.468 120.967L134.619 119.883L119.505 121.399L134.681 122.049L119.493 121.832L134.495 124.208L119.431 122.261L134.065 126.332L119.321 122.68L133.395 128.392L119.164 123.084L132.495 130.363L118.961 123.467L131.376 132.219L118.717 123.825L130.053 133.935L118.433 124.152L128.543 135.489L118.114 124.445L126.866 136.86L117.763 124.7L125.043 138.032L117.386 124.913L123.098 138.988L116.987 125.082L121.058 139.716L116.571 125.204L118.947 140.207L116.144 125.278L116.794 140.454L115.711 125.303L114.628 140.454L115.278 125.278L112.475 140.207L114.851 125.204L110.365 139.716L114.436 125.082L108.324 138.988L114.036 124.913L106.379 138.032L113.659 124.7L104.556 136.86L113.308 124.445L102.879 135.489L112.989 124.152L101.369 133.935L112.705 123.825L100.046 132.219L112.461 123.467L98.9269 130.363L112.259 123.084L98.0268 128.392L112.101 122.68L97.3572 126.332L111.991 122.261L96.9269 124.208L111.93 121.832L96.7415 122.049L111.917 121.399L96.8033 119.883L111.954 120.967L97.1117 117.738L112.04 120.542L97.6625 115.643L112.174 120.13L98.4487 113.624L112.354 119.736L99.4598 111.707L112.578 119.365L100.683 109.919L112.843 119.022L102.102 108.281L113.145 118.711L103.698 106.816L113.48 118.437L105.451 105.542L113.845 118.202L107.338 104.477L114.234 118.011L109.334 103.633L114.642 117.865L111.413 103.023L115.064 117.767L113.548 102.653L115.494 117.718L115.711 102.53Z" fill="url(#paint25_linear_12_57524)"/>
<path d="M159.088 74.5156L159.16 79.5783L159.809 74.5569L159.304 79.5948L160.521 74.68L159.444 79.6275L161.214 74.8835L159.58 79.676L161.879 75.1647L159.71 79.7398L162.508 75.5198L159.831 79.8179L163.092 75.9444L159.943 79.9093L163.624 76.4327L160.044 80.0129L164.097 76.9786L160.132 80.1273L164.505 77.5748L160.207 80.251L164.842 78.2136L160.267 80.3824L165.104 78.8866L160.311 80.5198L165.288 79.5852L160.34 80.6614L165.39 80.3001L160.352 80.8053L165.411 81.022L160.348 80.9497L165.349 81.7417L160.328 81.0927L165.206 82.4495L160.291 81.2324L164.983 83.1364L160.239 81.367L164.683 83.7934L160.171 81.4947L164.31 84.4119L160.09 81.614L163.869 84.9839L159.995 81.7231L163.365 85.5019L159.889 81.8208L162.806 85.9591L159.772 81.9057L162.198 86.3496L159.646 81.9768L161.55 86.6682L159.513 82.033L160.87 86.9109L159.374 82.0737L160.167 87.0745L159.232 82.0983L159.449 87.1569L159.088 82.1066L158.727 87.1569L158.944 82.0983L158.009 87.0745L158.801 82.0737L157.306 86.9109L158.663 82.033L156.625 86.6682L158.53 81.9768L155.977 86.3496L158.404 81.9057L155.37 85.9591L158.287 81.8208L154.81 85.5019L158.181 81.7231L154.307 84.9839L158.086 81.614L153.866 84.4119L158.004 81.4947L153.493 83.7934L157.937 81.367L153.193 83.1364L157.885 81.2324L152.97 82.4495L157.848 81.0927L152.826 81.7417L157.827 80.9497L152.765 81.022L157.823 80.8053L152.785 80.3001L157.836 80.6614L152.888 79.5852L157.864 80.5198L153.072 78.8866L157.909 80.3824L153.334 78.2136L157.969 80.251L153.671 77.5748L158.043 80.1273L154.078 76.9786L158.132 80.0129L154.551 76.4327L158.232 79.9093L155.084 75.9444L158.344 79.8179L155.668 75.5198L158.466 79.7398L156.297 75.1647L158.595 79.676L156.962 74.8835L158.731 79.6275L157.655 74.68L158.872 79.5948L158.367 74.5569L159.016 79.5783L159.088 74.5156Z" fill="url(#paint26_linear_12_57524)"/>
<path d="M71.4306 71.8047L71.5028 76.8674L72.1517 71.8459L71.6463 76.8838L72.8634 71.9691L71.787 76.9166L73.5564 72.1726L71.9231 76.9651L74.2217 72.4537L72.0527 77.0288L74.8506 72.8089L72.1742 77.1069L75.4349 73.2334L72.2861 77.1984L75.967 73.7218L72.3867 77.302L76.44 74.2676L72.4749 77.4164L76.8477 74.8639L72.5495 77.5401L77.1847 75.5026L72.6095 77.6715L77.4468 76.1757L72.6542 77.8088L77.6304 76.8742L72.6829 77.9504L77.7332 77.5891L72.6952 78.0943L77.7538 78.3111L72.6911 78.2387L77.692 79.0307L72.6705 78.3817L77.5485 79.7386L72.6338 78.5214L77.3254 80.4255L72.5814 78.656L77.0253 81.0825L72.514 78.7838L76.6523 81.701L72.4325 78.903L76.2113 82.273L72.3379 79.0122L75.7079 82.7909L72.2315 79.1099L75.1488 83.2481L72.1146 79.1948L74.5412 83.6386L71.9888 79.2658L73.893 83.9573L71.8557 79.322L73.2128 84.2L71.7171 79.3627L72.5093 84.3636L71.5748 79.3874L71.7917 84.4459L71.4306 79.3956L71.0695 84.4459L71.2864 79.3874L70.3519 84.3636L71.144 79.3627L69.6484 84.2L71.0054 79.322L68.9682 83.9573L70.8724 79.2658L68.32 83.6386L70.7466 79.1948L67.7124 83.2481L70.6297 79.1099L67.1533 82.7909L70.5233 79.0122L66.6499 82.273L70.4287 78.903L66.2088 81.701L70.3472 78.7838L65.8359 81.0825L70.2798 78.656L65.5358 80.4255L70.2274 78.5214L65.3126 79.7386L70.1906 78.3817L65.1692 79.0307L70.1701 78.2387L65.1074 78.3111L70.166 78.0943L65.128 77.5891L70.1783 77.9504L65.2308 76.8742L70.207 77.8088L65.4144 76.1757L70.2516 77.6715L65.6765 75.5026L70.3116 77.5401L66.0135 74.8639L70.3862 77.4164L66.4212 74.2676L70.4745 77.302L66.8942 73.7218L70.5751 77.1984L67.4263 73.2334L70.687 77.1069L68.0106 72.8089L70.8085 77.0288L68.6395 72.4537L70.9381 76.9651L69.3048 72.1726L71.0742 76.9166L69.9978 71.9691L71.2149 76.8838L70.7095 71.8459L71.3584 76.8674L71.4306 71.8047Z" fill="url(#paint27_linear_12_57524)"/>
<path d="M29.8612 149.521L29.9334 154.584L30.5823 149.562L30.0769 154.6L31.294 149.685L30.2176 154.633L31.987 149.889L30.3537 154.681L32.6523 150.17L30.4833 154.745L33.2812 150.525L30.6048 154.823L33.8655 150.95L30.7167 154.915L34.3976 151.438L30.8173 155.018L34.8706 151.984L30.9055 155.133L35.2783 152.58L30.9801 155.256L35.6153 153.219L31.0401 155.388L35.8774 153.892L31.0848 155.525L36.061 154.591L31.1135 155.667L36.1638 155.305L31.1258 155.811L36.1844 156.027L31.1217 155.955L36.1226 156.747L31.1011 156.098L35.9791 157.455L31.0644 156.238L35.756 158.142L31.012 156.372L35.4559 158.799L30.9446 156.5L35.0829 159.417L30.8631 156.619L34.6419 159.989L30.7685 156.729L34.1385 160.507L30.6621 156.826L33.5794 160.964L30.5452 156.911L32.9718 161.355L30.4194 156.982L32.3236 161.674L30.2863 157.038L31.6434 161.916L30.1477 157.079L30.9399 162.08L30.0054 157.104L30.2223 162.162L29.8612 157.112L29.5001 162.162L29.717 157.104L28.7825 162.08L29.5746 157.079L28.079 161.916L29.436 157.038L27.3988 161.674L29.303 156.982L26.7506 161.355L29.1772 156.911L26.143 160.964L29.0603 156.826L25.5839 160.507L28.9539 156.729L25.0805 159.989L28.8593 156.619L24.6394 159.417L28.7778 156.5L24.2665 158.799L28.7104 156.372L23.9664 158.142L28.658 156.238L23.7432 157.455L28.6212 156.098L23.5998 156.747L28.6007 155.955L23.538 156.027L28.5966 155.811L23.5586 155.305L28.6089 155.667L23.6614 154.591L28.6376 155.525L23.845 153.892L28.6822 155.388L24.1071 153.219L28.7422 155.256L24.4441 152.58L28.8168 155.133L24.8518 151.984L28.905 155.018L25.3248 151.438L29.0057 154.915L25.8569 150.95L29.1176 154.823L26.4412 150.525L29.2391 154.745L27.0701 150.17L29.3687 154.681L27.7354 149.889L29.5048 154.633L28.4284 149.685L29.6455 154.6L29.1401 149.562L29.789 154.584L29.8612 149.521Z" fill="url(#paint28_linear_12_57524)"/>
<path d="M88.1487 220.912L88.2571 228.506L89.2304 220.974L88.4723 228.531L90.2979 221.159L88.6834 228.58L91.3374 221.464L88.8875 228.653L92.3353 221.886L89.0819 228.748L93.2787 222.418L89.2642 228.865L94.1552 223.055L89.4319 229.003L94.9534 223.788L89.5829 229.158L95.6628 224.607L89.7153 229.33L96.2743 225.501L89.8271 229.515L96.7799 226.459L89.9172 229.712L97.173 227.469L89.9841 229.918L97.4484 228.516L90.0271 230.131L97.6026 229.589L90.0457 230.347L97.6335 230.672L90.0395 230.563L97.5408 231.751L90.0087 230.778L97.3257 232.813L89.9536 230.987L96.9909 233.843L89.875 231.189L96.5408 234.829L89.7738 231.381L95.9814 235.757L89.6515 231.56L95.3198 236.615L89.5097 231.723L94.5647 237.391L89.35 231.87L93.726 238.077L89.1747 231.997L92.8146 238.663L88.986 232.104L91.8424 239.141L88.7865 232.188L90.822 239.505L88.5786 232.249L89.7668 239.75L88.3651 232.286L88.6904 239.874L88.1487 232.299L87.607 239.874L87.9324 232.286L86.5307 239.75L87.7189 232.249L85.4755 239.505L87.511 232.188L84.4551 239.141L87.3114 232.104L83.4828 238.663L87.1227 231.997L82.5714 238.077L86.9474 231.87L81.7327 237.391L86.7878 231.723L80.9777 236.615L86.6459 231.56L80.3161 235.757L86.5236 231.381L79.7566 234.829L86.4225 231.189L79.3066 233.843L86.3439 230.987L78.9718 232.813L86.2888 230.778L78.7566 231.751L86.258 230.563L78.6639 230.672L86.2518 230.347L78.6949 229.589L86.2703 230.131L78.849 228.516L86.3133 229.918L79.1245 227.469L86.3803 229.712L79.5175 226.459L86.4703 229.515L80.0231 225.501L86.5822 229.33L80.6346 224.607L86.7145 229.158L81.3441 223.788L86.8655 229.003L82.1423 223.055L87.0333 228.865L83.0188 222.418L87.2155 228.748L83.9621 221.886L87.41 228.653L84.9601 221.464L87.6141 228.58L85.9996 221.159L87.8251 228.531L87.0671 220.974L88.0404 228.506L88.1487 220.912Z" fill="url(#paint29_linear_12_57524)"/>
</svg>
